<?xml version="1.0" encoding="UTF-8"?>
<svg width="2220" height="384" version="1.1" viewBox="0 -960 44400 7680" xml:space="preserve" xmlns="http://www.w3.org/2000/svg" xmlns:xlink="http://www.w3.org/1999/xlink"><defs><linearGradient id="a" x1="394.06299" x2="44080" y1="2880" y2="2880" gradientUnits="userSpaceOnUse"><stop stop-color="#ccb000" offset="0"/><stop stop-color="#fd0" offset=".5"/><stop stop-color="#ccb000" offset="1"/></linearGradient></defs><g fill="url(#a)"><path d="m7285.937 5809.046h-2756.75v172.297q0 213.217-151.837 365.054t-365.054 151.837h-3101.342q-213.217 0-365.054-151.837t-151.837-365.054v-5513.499q0-213.217 151.837-365.054 151.836-151.836 365.054-151.836h516.891v-344.594q0-146.452 99.071-245.523t245.523-99.071h1378.375q146.452 0 245.523 99.071t99.071 245.523v344.594h516.891q213.217 0 365.054 151.837t151.837 365.054v172.297h2756.75zm-4307.421-1033.781h516.891v-516.891h-516.89zm0-2584.453h516.891v-516.891h-516.89zm1378.374 2584.453h516.891v-516.891h-516.891zm0-2584.453h516.891v-516.891h-516.891zm1378.375 2584.453h516.89v-516.891h-516.89zm0-2584.453h516.89v-516.891h-516.89z"/><g stroke-width="16.7511" aria-label="DigitalesFilmmanagement"><path d="m17277.53 535.3777q0 387.89131-149.189 648.5794-147.619 259.1177-428.722 391.0321-281.103 130.3441-676.847 130.3441h-650.15v-2295.93966h720.819q361.194 0 626.593 128.77363 265.4 127.20322 411.448 378.468841 146.048 249.695209 146.048 618.741589zm-505.672 12.56328q0-254.40644-75.38-417.72909-73.809-164.893065-219.857-243.41357-144.478-78.52051-358.054-78.52051h-259.117v1495.03049h208.864q356.483 0 529.228-190.0197 174.316-190.01959 174.316-565.34762z"/><path d="m18194.649-50.385276v1755.718576h-478.975v-1755.718576zm-238.702-687.839634q106.788 0 183.738 50.25312 76.95 48.68271 76.95 183.73799 0 133.48486-76.95 185.30839-76.95 50.25313-183.738 50.25313-108.358 0-185.308-50.25313-75.38-51.82353-75.38-185.30839 0-135.05528 75.38-183.73799 76.95-50.25312 185.308-50.25312z"/><path d="m19210.705 2477.975q-367.476 0-562.207-128.7736-193.16-127.2032-193.16-358.0535 0-158.6114 98.935-265.3993 98.936-106.7879 290.526-152.3298-73.809-31.4082-128.773-102.0767-54.965-72.2388-54.965-152.3297 0-100.5063 58.105-166.4635 58.106-67.5277 168.034-131.9145-138.196-59.67555-219.857-191.59-80.091-131.91445-80.091-310.94121 0-191.59003 83.232-325.0749 84.802-135.055267 244.984-205.723723 161.752-70.668456 392.602-70.668456 48.683 0 113.07 6.281641 64.387 6.28164 117.78 14.133691 54.965 7.852051 73.81 12.563281h612.46v243.413566l-274.822 70.66846q37.69 58.10518 56.535 124.0624 18.845 65.95723 18.845 139.7665 0 282.67383-197.872 441.28525-196.301 157.041-546.503 157.041-83.231-4.7112-157.041-12.5633-36.119 28.2674-54.964 59.6756t-18.845 65.9572q0 34.5491 28.267 58.1052 29.838 21.9858 87.943 34.549 59.676 10.9929 147.619 10.9929h298.378q288.955 0 439.715 124.0624 152.329 124.0624 152.329 364.3352 0 307.8003-257.547 477.4046-255.977 169.6043-736.522 169.6043zm20.415-312.5116q171.175 0 293.667-32.9786 124.062-31.4082 190.019-91.0838 65.958-58.1052 65.958-139.7665 0-65.9572-39.261-105.2175-37.689-37.6898-116.21-53.3939-76.95-15.7041-197.872-15.7041h-248.124q-87.943 0-158.612 28.2674-69.098 28.2674-109.929 78.5205-40.83 51.8235-40.83 119.3512 0 98.9358 94.224 155.4706 95.795 56.5347 266.97 56.5347zm76.95-1331.70777q135.055 0 197.872-83.23174 62.816-83.23174 62.816-226.13906 0-158.61142-65.957-237.13193-64.387-80.09091-194.731-80.09091-131.914 0-197.871 80.09091-65.958 78.52051-65.958 237.13193 0 142.90732 64.387 226.13906 65.957 83.23174 199.442 83.23174z"/><path d="m20993.12-50.385276v1755.718576h-478.975v-1755.718576zm-238.702-687.839634q106.788 0 183.738 50.25312 76.95 48.68271 76.95 183.73799 0 133.48486-76.95 185.30839-76.95 50.25313-183.738 50.25313-108.359 0-185.309-50.25313-75.379-51.82353-75.379-185.30839 0-135.05528 75.379-183.73799 76.95-50.25312 185.309-50.25312z"/><path d="m22235.315 1355.1318q78.52 0 152.329-15.7041 75.38-15.7041 149.189-39.2603v356.4831q-76.95 34.5491-191.59 56.5348-113.069 23.5562-248.125 23.5562-157.041 0-282.673-50.2532-124.063-51.8235-196.302-177.4563-70.668-127.2032-70.668-353.3423v-846.45106h-229.28v-202.5829l263.829-160.181836 138.196-370.616794h306.23v373.757614h491.538v359.623916h-491.538v846.45106q0 100.5063 56.535 150.7594 58.105 48.6827 152.33 48.6827z"/><path d="m23610.994-86.504709q353.342 0 541.791 153.900193 188.45 153.900196 188.45 467.982216v1169.9556h-334.498l-92.654-238.7024h-12.563q-75.38 94.2246-153.9 153.9002-78.521 59.6756-180.598 87.943-102.076 28.2674-248.124 28.2674-155.471 0-279.533-59.6756-122.492-59.6756-193.161-182.1676-70.668-124.0624-70.668-314.082 0-279.53304 196.301-411.44749 196.301-133.48486 588.904-147.61855l304.659-9.42246v-76.9501q0-138.19609-72.238-202.5829-72.239-64.38682-201.013-64.38682-127.203 0-249.695 36.11943-122.492 36.11944-244.984 91.08379l-158.612-323.504486q139.767-73.809276 312.512-116.21035 174.316-42.401073 359.624-42.401073zm254.406 978.365509-185.308 6.28164q-232.421 6.28164-323.505 83.23174-89.513 76.95012-89.513 202.58292 0 109.9287 64.387 157.041 64.387 45.5419 168.034 45.5419 153.9 0 259.117-91.0838 106.788-91.0838 106.788-259.1177z"/><path d="m25313.319 1705.3333h-478.975v-2443.55821h478.975z"/><path d="m26539.809-83.363889q243.413 0 419.299 94.224608 175.886 92.654201 271.681 270.110541 95.795 177.45635 95.795 433.4332v232.4207h-1132.266q7.853 202.58294 120.922 318.79324 114.64 114.64 317.223 114.64 168.034 0 307.8-34.5491 139.767-34.549 287.385-103.647v370.6168q-130.344 64.3868-273.251 94.2246-141.337 29.8378-343.92 29.8378-263.829 0-467.982-97.3655-202.583-97.3654-318.793-296.8075-114.64-199.4421-114.64-502.53123 0-307.80039 103.647-511.9537 105.217-205.72373 292.096-307.80039 186.879-103.647069 435.004-103.647069zm3.141 340.778999q-139.767 0-232.421 89.51338-91.084 89.51337-105.218 281.10341h672.136q-1.571-106.78789-39.26-190.01962-36.12-83.23174-109.929-131.91446-72.239-48.68271-185.308-48.68271z"/><path d="m28940.966 1183.9571q0 179.0267-84.802 303.0891-83.232 122.492-249.696 186.8788-166.463 62.8165-414.588 62.8165-183.738 0-315.652-23.5562-130.344-23.5561-263.829-78.5205v-395.7434q142.907 64.3869 306.23 106.7879 164.893 40.8307 288.955 40.8307 139.767 0 199.442-40.8307 61.246-42.401 61.246-109.9287 0-43.9715-25.126-78.5205-23.556-36.1194-103.647-80.0909-80.091-45.5419-251.266-117.78076-164.893-69.09805-271.681-139.7665-105.217-70.66846-157.041-166.46348-50.253-97.36542-50.253-246.55439 0-243.41357 188.449-365.905558 190.02-124.062401 507.243-124.062401 163.322 0 310.941 32.978613 149.189 32.978613 306.23 105.217479l-144.478 345.490227q-130.344-56.53476-246.554-92.6542-114.64-36.11943-233.991-36.11943-105.218 0-158.612 28.26738-53.394 28.26739-53.394 86.37256 0 42.40107 26.697 75.37969 28.268 32.97861 106.788 73.80927 80.091 39.26026 233.991 102.07666 149.189 61.246 259.118 128.77363 109.929 65.95723 169.604 164.89307 59.676 97.36544 59.676 252.83604z"/><path d="m8677.1789 5725.583h-478.9751v-2295.9396h1316.0037v398.8842h-837.0286v592.0446h778.9234v397.3138h-778.9234z"/><path d="m10404.63 3969.8645v1755.7185h-478.9751v-1755.7185zm-238.702-687.8397q106.788 0 183.738 50.2532 76.95 48.6827 76.95 183.738 0 133.4848-76.95 185.3083-76.95 50.2532-183.738 50.2532-108.359 0-185.3087-50.2532-75.3797-51.8235-75.3797-185.3083 0-135.0553 75.3797-183.738 76.9497-50.2532 185.3087-50.2532z"/><path d="m11386.136 5725.583h-478.975v-2443.5582h478.975z"/><path d="m13950.616 3936.8859q298.378 0 450.708 153.9002 153.9 152.3297 153.9 489.9679v1144.829h-480.545v-1025.4778q0-188.4492-64.387-284.2442-64.387-95.7951-199.442-95.7951-190.02 0-270.111 136.6257-80.091 135.0553-80.091 387.8913v881.0001h-478.975v-1025.4778q0-125.6328-28.267-210.435-28.268-84.8021-86.373-127.2032t-149.189-42.4011q-133.485 0-210.435 67.5277-75.379 65.9572-108.358 196.3012-31.408 128.7737-31.408 315.6525v826.0357h-478.975v-1755.7185h365.905l64.387 224.5686h26.697q53.394-91.0838 133.485-147.6185 81.661-56.5348 179.027-83.2318 97.365-26.6969 197.871-26.6969 193.161 0 326.646 62.8164 135.055 62.8164 207.294 194.7308h42.401q78.52-135.0552 221.428-196.3012 144.477-61.246 296.807-61.246z"/><path d="m17108.711 3936.8859q298.378 0 450.708 153.9002 153.9 152.3297 153.9 489.9679v1144.829h-480.546v-1025.4778q0-188.4492-64.386-284.2442-64.387-95.7951-199.443-95.7951-190.019 0-270.11 136.6257-80.091 135.0553-80.091 387.8913v881.0001h-478.975v-1025.4778q0-125.6328-28.267-210.435-28.268-84.8021-86.373-127.2032t-149.189-42.4011q-133.485 0-210.435 67.5277-75.38 65.9572-108.358 196.3012-31.408 128.7737-31.408 315.6525v826.0357h-478.976v-1755.7185h365.906l64.387 224.5686h26.697q53.394-91.0838 133.485-147.6185 81.661-56.5348 179.026-83.2318 97.366-26.6969 197.872-26.6969 193.161 0 326.645 62.8164 135.056 62.8164 207.295 194.7308h42.401q78.52-135.0552 221.427-196.3012 144.478-61.246 296.808-61.246z"/><path d="m18924.105 3933.745q353.342 0 541.791 153.9002t188.449 467.9823v1169.9555h-334.497l-92.654-238.7023h-12.564q-75.379 94.2246-153.9 153.9002-78.52 59.6755-180.597 87.9429t-248.125 28.2674q-155.47 0-279.533-59.6756-122.492-59.6756-193.16-182.1675-70.669-124.0625-70.669-314.0821 0-279.533 196.302-411.4474 196.301-133.4849 588.903-147.6186l304.66-9.4224v-76.9501q0-138.1961-72.239-202.5829-72.239-64.3869-201.012-64.3869-127.204 0-249.696 36.1195-122.492 36.1194-244.984 91.0838l-158.611-323.5045q139.767-73.8093 312.512-116.2104 174.315-42.4011 359.624-42.4011zm254.406 978.3656-185.308 6.2816q-232.421 6.2816-323.505 83.2317-89.513 76.9501-89.513 202.5829 0 109.9288 64.387 157.0411 64.386 45.5419 168.033 45.5419 153.901 0 259.118-91.0838 106.788-91.0838 106.788-259.1177z"/><path d="m21144.665 3936.8859q281.103 0 452.278 153.9002 171.175 152.3297 171.175 489.9679v1144.829h-478.975v-1025.4778q0-188.4492-69.099-284.2442-67.527-95.7951-213.575-95.7951-219.858 0-299.949 149.189t-80.091 430.2924v826.0357h-478.975v-1755.7185h365.906l64.387 224.5686h26.697q56.534-91.0838 139.766-147.6185 84.802-56.5348 186.879-83.2318 103.647-26.6969 213.576-26.6969z"/><path d="m22980.475 3933.745q353.342 0 541.791 153.9002t188.449 467.9823v1169.9555h-334.497l-92.654-238.7023h-12.563q-75.38 94.2246-153.901 153.9002-78.52 59.6755-180.597 87.9429-102.076 28.2674-248.125 28.2674-155.47 0-279.533-59.6756-122.492-59.6756-193.16-182.1675-70.669-124.0625-70.669-314.0821 0-279.533 196.302-411.4474 196.301-133.4849 588.904-147.6186l304.659-9.4224v-76.9501q0-138.1961-72.239-202.5829-72.239-64.3869-201.012-64.3869-127.203 0-249.695 36.1195-122.492 36.1194-244.984 91.0838l-158.612-323.5045q139.767-73.8093 312.512-116.2104 174.315-42.4011 359.624-42.4011zm254.406 978.3656-185.308 6.2816q-232.421 6.2816-323.505 83.2317-89.513 76.9501-89.513 202.5829 0 109.9288 64.387 157.0411 64.386 45.5419 168.034 45.5419 153.9 0 259.117-91.0838 106.788-91.0838 106.788-259.1177z"/><path d="m24717.348 6498.2248q-367.476 0-562.207-128.7736-193.161-127.2033-193.161-358.0535 0-158.6115 98.936-265.3994 98.936-106.7878 290.526-152.3297-73.809-31.4082-128.774-102.0767-54.964-72.2389-54.964-152.3298 0-100.5062 58.105-166.4635 58.105-67.5276 168.034-131.9144-138.196-59.6756-219.857-191.59-80.091-131.9145-80.091-310.9413 0-191.59 83.232-325.0748 84.802-135.0553 244.984-205.7238 161.752-70.6684 392.602-70.6684 48.683 0 113.07 6.2816 64.386 6.2816 117.78 14.1337 54.965 7.852 73.81 12.5633h612.46v243.4136l-274.822 70.6684q37.69 58.1052 56.535 124.0624 18.844 65.9572 18.844 139.7665 0 282.6738-197.871 441.2853-196.301 157.041-546.503 157.041-83.232-4.7113-157.041-12.5633-36.119 28.2674-54.964 59.6756t-18.845 65.9572 28.267 58.1052q29.838 21.9857 87.943 34.549 59.676 10.9929 147.619 10.9929h298.378q288.955 0 439.714 124.0624 152.33 124.0624 152.33 364.3351 0 307.8004-257.547 477.4047-255.977 169.6043-736.522 169.6043zm20.415-312.5116q171.175 0 293.667-32.9786 124.062-31.4082 190.019-91.0838 65.957-58.1052 65.957-139.7665 0-65.9573-39.26-105.2175-37.69-37.6898-116.21-53.3939-76.95-15.7042-197.872-15.7042h-248.125q-87.943 0-158.611 28.2674-69.098 28.2674-109.929 78.5205-40.83 51.8236-40.83 119.3512 0 98.9358 94.224 155.4706 95.795 56.5348 266.97 56.5348zm76.95-1331.7078q135.055 0 197.872-83.2318 62.816-83.2317 62.816-226.139 0-158.6114-65.957-237.1319-64.387-80.091-194.731-80.091-131.914 0-197.872 80.091-65.957 78.5205-65.957 237.1319 0 142.9073 64.387 226.139 65.957 83.2318 199.442 83.2318z"/><path d="m26744.746 3936.8859q243.414 0 419.3 94.2246 175.886 92.6542 271.681 270.1105 95.795 177.4564 95.795 433.4332v232.4207h-1132.266q7.852 202.5829 120.922 318.7933 114.64 114.6399 317.223 114.6399 168.034 0 307.8-34.549 139.767-34.549 287.385-103.6471v370.6168q-130.344 64.3868-273.251 94.2246-141.337 29.8378-343.92 29.8378-263.829 0-467.982-97.3654-202.583-97.3654-318.794-296.8075-114.64-199.4421-114.64-502.5313 0-307.8004 103.648-511.9537 105.217-205.7237 292.096-307.8004 186.879-103.647 435.003-103.647zm3.141 340.779q-139.766 0-232.42 89.5133-91.084 89.5134-105.218 281.1035h672.136q-1.571-106.7879-39.261-190.0197-36.119-83.2317-109.928-131.9144-72.239-48.6827-185.309-48.6827z"/><path d="m29982.933 3936.8859q298.378 0 450.708 153.9002 153.9 152.3297 153.9 489.9679v1144.829h-480.545v-1025.4778q0-188.4492-64.387-284.2442-64.387-95.7951-199.442-95.7951-190.02 0-270.111 136.6257-80.091 135.0553-80.091 387.8913v881.0001h-478.975v-1025.4778q0-125.6328-28.267-210.435-28.268-84.8021-86.373-127.2032t-149.189-42.4011q-133.485 0-210.435 67.5277-75.379 65.9572-108.358 196.3012-31.408 128.7737-31.408 315.6525v826.0357h-478.975v-1755.7185h365.905l64.387 224.5686h26.697q53.394-91.0838 133.485-147.6185 81.661-56.5348 179.027-83.2318 97.365-26.6969 197.871-26.6969 193.161 0 326.646 62.8164 135.055 62.8164 207.294 194.7308h42.401q78.52-135.0552 221.428-196.3012 144.477-61.246 296.807-61.246z"/><path d="m31803.037 3936.8859q243.414 0 419.3 94.2246 175.886 92.6542 271.681 270.1105 95.795 177.4564 95.795 433.4332v232.4207h-1132.266q7.852 202.5829 120.922 318.7933 114.64 114.6399 317.223 114.6399 168.034 0 307.8-34.549 139.767-34.549 287.385-103.6471v370.6168q-130.344 64.3868-273.251 94.2246-141.337 29.8378-343.92 29.8378-263.829 0-467.982-97.3654-202.583-97.3654-318.794-296.8075-114.64-199.4421-114.64-502.5313 0-307.8004 103.648-511.9537 105.217-205.7237 292.096-307.8004 186.879-103.647 435.003-103.647zm3.141 340.779q-139.766 0-232.42 89.5133-91.084 89.5134-105.218 281.1035h672.136q-1.571-106.7879-39.261-190.0197-36.119-83.2317-109.928-131.9144-72.239-48.6827-185.309-48.6827z"/><path d="m33976.486 3936.8859q281.103 0 452.278 153.9002 171.175 152.3297 171.175 489.9679v1144.829h-478.975v-1025.4778q0-188.4492-69.098-284.2442-67.528-95.7951-213.576-95.7951-219.857 0-299.948 149.189t-80.091 430.2924v826.0357h-478.975v-1755.7185h365.905l64.387 224.5686h26.697q56.535-91.0838 139.767-147.6185 84.802-56.5348 186.878-83.2318 103.647-26.6969 213.576-26.6969z"/><path d="m35832.71 5375.3815q78.521 0 152.33-15.7041 75.38-15.7041 149.189-39.2602v356.4831q-76.95 34.549-191.59 56.5348-113.07 23.5561-248.125 23.5561-157.041 0-282.674-50.2531-124.062-51.8235-196.301-177.4564-70.668-127.2032-70.668-353.3422v-846.4511h-229.28v-202.5829l263.829-160.1818 138.196-370.6168h306.23v373.7576h491.538v359.6239h-491.538v846.4511q0 100.5062 56.535 150.7593 58.105 48.6827 152.329 48.6827z"/></g><path d="m40461.77 2477.9749q1618.153 0 2618.191-492.482 1000.039-492.481 1000.039-1115.6209 0-633.19-1000.039-1120.6459-1000.038-487.456-2618.191-487.456t-2618.191 487.456q-1000.039 487.4559-1000.039 1120.6459 0 623.1399 1000.039 1115.6209 1000.038 492.482 2618.191 492.482zm0 1005.063q502.532 0 1125.672-85.43 623.139-85.43 1180.95-266.342 557.81-180.911 934.709-467.355 376.899-286.443 376.899-688.468v1005.063q0 402.026-376.899 688.469t-934.709 467.355q-557.811 180.911-1180.95 266.342-623.14 85.43-1125.672 85.43-492.481 0-1120.646-85.43-628.165-85.431-1185.976-271.367-557.81-185.937-934.709-472.38-376.899-286.444-376.899-678.419v-1005.063q0 391.975 376.899 678.418t934.709 472.38q557.811 185.937 1185.976 271.367t1120.646 85.43zm0 2010.128q502.532 0 1125.672-85.43 623.139-85.431 1180.95-266.342 557.81-180.912 934.709-467.355t376.899-688.469v1005.064q0 402.026-376.899 688.469t-934.709 467.355q-557.811 180.911-1180.95 266.342-623.14 85.43-1125.672 85.43-492.481 0-1120.646-85.43-628.165-85.431-1185.976-271.368-557.81-185.936-934.709-472.38-376.899-286.443-376.899-678.418v-1005.064q0 391.975 376.899 678.419 376.899 286.443 934.709 472.38 557.811 185.936 1185.976 271.367 628.165 85.43 1120.646 85.43z" stroke-width="10.0506"/></g></svg>
